<svg width="225" height="38" viewBox="0 0 225 38" fill="none" xmlns="http://www.w3.org/2000/svg">
<path d="M202.618 0H22.3822C10.0209 0 0 8.50659 0 19C0 29.4934 10.0209 38 22.3822 38H202.618C214.979 38 225 29.4934 225 19C225 8.50659 214.979 0 202.618 0Z" fill="#35414A"/>
<path d="M199.721 29.2956V32.1746C200.167 32.1044 200.597 31.9521 200.988 31.7256L209.225 27.0156C209.792 26.6921 210.263 26.2242 210.59 25.6595C210.917 25.0947 211.089 24.4533 211.088 23.8006V14.4166C211.088 14.0066 211.013 13.5946 210.864 13.1836L208.367 14.6416L201.473 18.6036C200.056 19.6136 199.758 20.5476 199.721 21.6696V29.2956V29.2956Z" fill="#FBBF09"/>
<path d="M207.807 13.631L210.304 12.173C210.02 11.7735 209.652 11.4416 209.224 11.201L200.987 6.49097C199.832 5.81797 198.415 5.85497 197.297 6.49097L189.098 11.201C188.651 11.463 188.278 11.799 187.98 12.211L190.477 13.669L197.372 17.631C198.192 18.155 198.751 18.678 199.124 19.276C199.496 18.678 200.055 18.155 200.875 17.631L207.807 13.631V13.631Z" fill="#00A275"/>
<path d="M189.955 14.6787L187.421 13.2207C187.272 13.5947 187.197 14.0057 187.197 14.4167V23.8377C187.197 25.1467 187.906 26.3797 189.061 27.0527L197.261 31.7627C197.633 31.9877 198.08 32.1367 198.527 32.2127V21.6687C198.49 20.5467 198.192 19.6127 196.776 18.6027L189.956 14.6777L189.955 14.6787Z" fill="#EB8A04"/>
<path d="M210.864 13.1836L208.367 14.6416C208.442 14.9026 208.517 15.2016 208.517 15.5016V22.7536C208.517 23.8006 207.957 24.8096 207.026 25.3336L200.69 28.9596C200.392 29.1096 200.094 29.2206 199.758 29.2956V32.1746C200.204 32.1044 200.634 31.9521 201.025 31.7256L209.225 27.0156C209.792 26.6921 210.263 26.2242 210.59 25.6595C210.917 25.0947 211.089 24.4533 211.088 23.8006V14.4166C211.088 14.0066 211.013 13.5946 210.864 13.1836V13.1836Z" fill="#F5EA64"/>
<path d="M191.334 12.921L197.633 9.29497C198.565 8.77097 199.72 8.77097 200.614 9.29497L206.95 12.921C207.286 13.108 207.546 13.37 207.77 13.631L210.267 12.173C209.983 11.7735 209.615 11.4416 209.187 11.201L200.987 6.49097C199.832 5.81797 198.415 5.85497 197.297 6.49097L189.098 11.201C188.651 11.463 188.278 11.799 187.98 12.211L190.477 13.669C190.738 13.369 190.999 13.108 191.334 12.921V12.921Z" fill="#48C0ED"/>
<path d="M197.632 28.9597L191.334 25.3337C190.403 24.8097 189.844 23.8007 189.844 22.7537V15.5007C189.844 15.2017 189.881 14.9407 189.955 14.6787L187.421 13.2207C187.272 13.5947 187.197 14.0057 187.197 14.4167V23.8377C187.197 25.1467 187.906 26.3797 189.061 27.0527L197.261 31.7627C197.633 31.9877 198.08 32.1367 198.527 32.2127V29.3327C198.229 29.2207 197.931 29.1087 197.633 28.9597H197.632Z" fill="#FDD657"/>
<path d="M57.534 22.912C58.215 22.912 58.824 22.814 59.361 22.618C59.8787 22.4341 60.3479 22.1349 60.733 21.743C61.1263 21.3304 61.4228 20.8354 61.601 20.294C61.801 19.715 61.902 19.048 61.902 18.292C61.902 16.78 61.51 15.646 60.726 14.89C59.942 14.134 58.85 13.756 57.45 13.756H55V22.912H57.534V22.912ZM57.338 21.596H56.624V15.072H57.338C58.262 15.072 58.976 15.329 59.48 15.842C59.984 16.355 60.236 17.172 60.236 18.292C60.236 19.422 59.986 20.254 59.487 20.791C58.987 21.328 58.271 21.596 57.338 21.596V21.596ZM66.65 23.08C67.089 23.08 67.509 23.01 67.91 22.87C68.311 22.73 68.675 22.553 69.002 22.338L68.456 21.33C68.2167 21.4825 67.9607 21.607 67.693 21.701C67.4247 21.7915 67.1432 21.8365 66.86 21.834C66.3 21.834 65.84 21.668 65.481 21.337C65.121 21.006 64.905 20.532 64.83 19.916H69.198C69.217 19.832 69.233 19.72 69.247 19.58C69.261 19.44 69.268 19.29 69.268 19.132C69.268 18.656 69.208 18.217 69.086 17.816C68.977 17.4383 68.7938 17.0861 68.547 16.78C68.3074 16.4895 68.0029 16.2593 67.658 16.108C67.303 15.949 66.893 15.87 66.426 15.87C66.025 15.87 65.633 15.954 65.25 16.122C64.8674 16.2899 64.5223 16.5327 64.235 16.836C63.941 17.144 63.705 17.522 63.528 17.97C63.3444 18.4526 63.2542 18.9657 63.262 19.482C63.262 20.052 63.348 20.558 63.521 21.001C63.694 21.444 63.934 21.82 64.242 22.128C64.55 22.436 64.909 22.672 65.32 22.835C65.73 22.998 66.174 23.08 66.65 23.08V23.08ZM67.868 18.824H64.816C64.891 18.264 65.082 17.839 65.39 17.55C65.698 17.26 66.057 17.116 66.468 17.116C66.944 17.116 67.296 17.268 67.525 17.571C67.754 17.874 67.868 18.292 67.868 18.824V18.824ZM72.518 25.628V23.472L72.476 22.324C72.756 22.567 73.046 22.754 73.344 22.884C73.643 23.014 73.941 23.08 74.24 23.08C74.623 23.08 74.991 22.996 75.346 22.828C75.701 22.66 76.013 22.42 76.284 22.107C76.554 21.794 76.772 21.407 76.935 20.945C77.098 20.483 77.18 19.958 77.18 19.37C77.1858 18.8833 77.1246 18.398 76.998 17.928C76.8915 17.5293 76.711 17.1541 76.466 16.822C76.2433 16.5229 75.9531 16.2806 75.619 16.115C75.2627 15.9462 74.8722 15.8623 74.478 15.87C74.095 15.87 73.727 15.959 73.372 16.136C73.0264 16.3074 72.7022 16.5189 72.406 16.766H72.35L72.238 16.038H70.908V25.628H72.518V25.628ZM73.904 21.75C73.699 21.75 73.479 21.708 73.246 21.624C72.9785 21.5193 72.732 21.3676 72.518 21.176V17.97C73.041 17.457 73.545 17.2 74.03 17.2C74.553 17.2 74.93 17.391 75.164 17.774C75.397 18.157 75.514 18.694 75.514 19.384C75.514 20.168 75.36 20.758 75.052 21.155C74.744 21.552 74.362 21.75 73.904 21.75ZM80.472 23.08C80.827 23.08 81.112 23.033 81.326 22.94L81.116 21.736C81.0684 21.7515 81.019 21.7609 80.969 21.764H80.864C80.78 21.764 80.701 21.724 80.626 21.645C80.551 21.565 80.514 21.428 80.514 21.232V13.028H78.904V21.148C78.904 21.745 79.021 22.217 79.254 22.562C79.487 22.907 79.894 23.08 80.472 23.08ZM85.612 23.08C86.042 23.08 86.454 23 86.851 22.842C87.2445 22.6855 87.6001 22.4468 87.894 22.142C88.193 21.834 88.433 21.456 88.615 21.008C88.797 20.56 88.888 20.051 88.888 19.482C88.888 18.912 88.797 18.404 88.615 17.956C88.4502 17.5349 88.2054 17.1498 87.894 16.822C87.5991 16.5166 87.2439 16.2758 86.851 16.115C86.4594 15.9525 86.0395 15.8688 85.6155 15.8688C85.1915 15.8688 84.7716 15.9525 84.38 16.115C83.988 16.278 83.64 16.514 83.337 16.822C83.0225 17.1474 82.7773 17.5332 82.616 17.956C82.439 18.404 82.35 18.913 82.35 19.482C82.35 20.052 82.439 20.56 82.616 21.008C82.793 21.456 83.034 21.834 83.337 22.142C83.64 22.45 83.988 22.683 84.38 22.842C84.772 23.001 85.183 23.08 85.612 23.08ZM85.612 21.764C85.108 21.764 84.714 21.556 84.429 21.141C84.144 20.726 84.002 20.173 84.002 19.482C84.002 18.782 84.144 18.224 84.429 17.809C84.5556 17.6119 84.7311 17.4509 84.9384 17.3417C85.1458 17.2325 85.3778 17.1789 85.612 17.186C86.116 17.186 86.512 17.394 86.802 17.809C87.092 18.224 87.236 18.782 87.236 19.482C87.236 20.172 87.091 20.726 86.802 21.141C86.512 21.556 86.116 21.764 85.612 21.764ZM90.962 25.74C91.335 25.74 91.664 25.682 91.949 25.565C92.234 25.448 92.486 25.28 92.705 25.061C92.925 24.841 93.118 24.578 93.286 24.27C93.454 23.962 93.608 23.612 93.748 23.22L96.24 16.038H94.686L93.65 19.412C93.4742 20.0552 93.3016 20.6992 93.132 21.344H93.076C92.9729 21.0159 92.8725 20.6868 92.775 20.357C92.6815 20.0399 92.5812 19.7248 92.474 19.412L91.284 16.038H89.646L92.348 22.828L92.222 23.262C92.1262 23.5799 91.9558 23.8703 91.725 24.109C91.505 24.329 91.214 24.438 90.85 24.438C90.766 24.438 90.68 24.426 90.591 24.403C90.5138 24.3828 90.4368 24.3618 90.36 24.34L90.066 25.6C90.196 25.647 90.332 25.682 90.472 25.705C90.612 25.728 90.775 25.74 90.962 25.74V25.74ZM103.412 22.912L104.196 19.72C104.271 19.393 104.341 19.067 104.406 18.74C104.471 18.413 104.536 18.068 104.602 17.704H104.658L104.868 18.733C104.933 19.055 105.003 19.379 105.078 19.706L105.876 22.912H107.794L109.544 16.038H108.032L107.206 19.608C107.141 19.935 107.08 20.261 107.024 20.588C106.968 20.915 106.907 21.246 106.842 21.582H106.786L106.562 20.588C106.487 20.2603 106.408 19.9336 106.324 19.608L105.414 16.038H103.944L103.048 19.608C102.964 19.935 102.887 20.261 102.817 20.588C102.747 20.915 102.679 21.246 102.614 21.582H102.558C102.494 21.2517 102.435 20.9204 102.383 20.588C102.331 20.2593 102.268 19.9324 102.194 19.608L101.368 16.038H99.744L101.564 22.912H103.412V22.912ZM111.814 14.834C112.104 14.834 112.341 14.75 112.528 14.582C112.62 14.4995 112.693 14.3978 112.741 14.2841C112.79 14.1704 112.812 14.0475 112.808 13.924C112.812 13.7995 112.789 13.6757 112.741 13.5609C112.692 13.4461 112.62 13.3432 112.528 13.259C112.341 13.086 112.103 13 111.814 13C111.524 13 111.287 13.086 111.1 13.259C111.008 13.3432 110.936 13.4461 110.887 13.5609C110.839 13.6757 110.816 13.7995 110.82 13.924C110.82 14.194 110.913 14.414 111.1 14.582C111.287 14.75 111.525 14.834 111.814 14.834ZM112.612 22.912V16.038H111.002V22.912H112.612ZM117.192 23.08C117.462 23.08 117.717 23.054 117.955 23.003C118.193 22.952 118.405 22.893 118.592 22.828L118.312 21.638C118.202 21.6871 118.087 21.7247 117.969 21.75C117.843 21.778 117.719 21.792 117.598 21.792C116.954 21.792 116.632 21.391 116.632 20.588V17.312H118.382V16.038H116.632V14.162H115.288L115.092 16.038L114.028 16.108V17.312H115.008V20.588C115.008 20.961 115.048 21.3 115.127 21.603C115.207 21.906 115.332 22.168 115.505 22.387C115.678 22.607 115.902 22.777 116.177 22.898C116.452 23.019 116.791 23.08 117.192 23.08V23.08ZM121.534 22.912V18.11C121.824 17.83 122.082 17.618 122.311 17.473C122.54 17.328 122.803 17.256 123.102 17.256C123.485 17.256 123.76 17.373 123.928 17.606C124.096 17.839 124.18 18.241 124.18 18.81V22.912H125.79V18.6C125.79 17.723 125.622 17.048 125.286 16.577C124.95 16.106 124.413 15.87 123.676 15.87C123.2 15.87 122.787 15.975 122.437 16.185C122.087 16.395 121.767 16.635 121.478 16.906L121.534 15.576V13.028H119.924V22.912H121.534V22.912ZM134.068 23.08C134.451 23.08 134.819 22.996 135.174 22.828C135.529 22.66 135.841 22.418 136.112 22.1C136.399 21.7536 136.62 21.3574 136.763 20.931C136.926 20.469 137.008 19.944 137.008 19.356C137.014 18.8693 136.953 18.384 136.826 17.914C136.72 17.5171 136.54 17.144 136.294 16.815C136.068 16.5179 135.776 16.2781 135.44 16.115C135.081 15.9467 134.688 15.8628 134.292 15.87C133.937 15.87 133.59 15.95 133.249 16.108C132.909 16.267 132.593 16.472 132.304 16.724L132.346 15.576V13.028H130.736V22.912H132.01L132.15 22.184H132.192C132.482 22.474 132.787 22.695 133.109 22.849C133.431 23.003 133.751 23.08 134.068 23.08V23.08ZM133.732 21.75C133.527 21.75 133.305 21.708 133.067 21.624C132.8 21.5223 132.555 21.3702 132.346 21.176V17.97C132.869 17.457 133.373 17.2 133.858 17.2C134.381 17.2 134.758 17.391 134.992 17.774C135.225 18.157 135.342 18.694 135.342 19.384C135.342 20.168 135.188 20.758 134.88 21.155C134.572 21.552 134.19 21.75 133.732 21.75ZM140.216 23.08C140.626 23.08 141.007 22.991 141.357 22.814C141.711 22.6342 142.042 22.4133 142.344 22.156H142.4L142.512 22.912H143.842V18.838C143.842 17.877 143.63 17.142 143.205 16.633C142.78 16.124 142.139 15.87 141.28 15.87C140.73 15.87 140.216 15.959 139.74 16.136C139.29 16.3006 138.858 16.5118 138.452 16.766L139.04 17.844C139.348 17.657 139.663 17.499 139.985 17.368C140.307 17.238 140.636 17.172 140.972 17.172C141.205 17.172 141.402 17.207 141.56 17.277C141.719 17.347 141.847 17.445 141.945 17.571C142.043 17.697 142.113 17.841 142.155 18.005C142.197 18.168 142.223 18.339 142.232 18.516C141.522 18.591 140.914 18.698 140.405 18.838C139.896 18.978 139.476 19.151 139.145 19.356C138.814 19.561 138.571 19.806 138.417 20.091C138.259 20.3907 138.18 20.7254 138.186 21.064C138.186 21.671 138.373 22.158 138.746 22.527C139.119 22.896 139.609 23.08 140.216 23.08V23.08ZM140.734 21.82C140.444 21.82 140.207 21.75 140.02 21.61C139.833 21.47 139.74 21.246 139.74 20.938C139.74 20.77 139.782 20.611 139.866 20.462C139.95 20.312 140.09 20.18 140.286 20.063C140.529 19.9269 140.787 19.8211 141.056 19.748C141.373 19.655 141.766 19.58 142.232 19.524V21.064C141.971 21.307 141.726 21.494 141.497 21.624C141.264 21.7557 141.001 21.8233 140.734 21.82V21.82ZM147.442 23.08C147.797 23.08 148.082 23.033 148.296 22.94L148.086 21.736C148.038 21.7515 147.989 21.7609 147.939 21.764H147.834C147.75 21.764 147.671 21.724 147.596 21.645C147.521 21.565 147.484 21.428 147.484 21.232V13.028H145.874V21.148C145.874 21.745 145.991 22.217 146.224 22.562C146.457 22.907 146.864 23.08 147.442 23.08ZM152.708 23.08C153.147 23.08 153.567 23.01 153.968 22.87C154.369 22.73 154.733 22.553 155.06 22.338L154.514 21.33C154.275 21.4825 154.019 21.607 153.751 21.701C153.483 21.7915 153.201 21.8365 152.918 21.834C152.358 21.834 151.898 21.668 151.539 21.337C151.179 21.006 150.963 20.532 150.888 19.916H155.256C155.275 19.832 155.291 19.72 155.305 19.58C155.319 19.44 155.326 19.29 155.326 19.132C155.326 18.656 155.266 18.217 155.144 17.816C155.035 17.4383 154.852 17.0861 154.605 16.78C154.365 16.4895 154.061 16.2593 153.716 16.108C153.361 15.949 152.951 15.87 152.484 15.87C152.083 15.87 151.691 15.954 151.308 16.122C150.925 16.2899 150.58 16.5327 150.293 16.836C149.999 17.144 149.763 17.522 149.586 17.97C149.402 18.4526 149.312 18.9657 149.32 19.482C149.32 20.052 149.406 20.558 149.579 21.001C149.752 21.444 149.992 21.82 150.3 22.128C150.608 22.436 150.967 22.672 151.378 22.835C151.788 22.998 152.232 23.08 152.708 23.08V23.08ZM153.926 18.824H150.874C150.949 18.264 151.14 17.839 151.448 17.55C151.756 17.26 152.115 17.116 152.526 17.116C153.002 17.116 153.354 17.268 153.583 17.571C153.812 17.874 153.926 18.292 153.926 18.824V18.824ZM158.576 22.912V18.11C158.866 17.83 159.124 17.618 159.353 17.473C159.582 17.328 159.845 17.256 160.144 17.256C160.527 17.256 160.802 17.373 160.97 17.606C161.138 17.839 161.222 18.241 161.222 18.81V22.912H162.832V18.6C162.832 17.723 162.664 17.048 162.328 16.577C161.992 16.106 161.455 15.87 160.718 15.87C160.242 15.87 159.824 15.977 159.465 16.192C159.103 16.409 158.767 16.6674 158.464 16.962H158.408L158.296 16.038H156.966V22.912H158.576ZM166.572 23.08C166.982 23.08 167.363 22.991 167.713 22.814C168.067 22.6342 168.398 22.4133 168.7 22.156H168.756L168.868 22.912H170.198V18.838C170.198 17.877 169.986 17.142 169.561 16.633C169.136 16.124 168.495 15.87 167.636 15.87C167.086 15.87 166.572 15.959 166.096 16.136C165.646 16.3006 165.214 16.5118 164.808 16.766L165.396 17.844C165.704 17.657 166.019 17.499 166.341 17.368C166.663 17.238 166.992 17.172 167.328 17.172C167.561 17.172 167.758 17.207 167.916 17.277C168.075 17.347 168.203 17.445 168.301 17.571C168.399 17.697 168.469 17.841 168.511 18.005C168.553 18.168 168.579 18.339 168.588 18.516C167.878 18.591 167.27 18.698 166.761 18.838C166.252 18.978 165.832 19.151 165.501 19.356C165.17 19.561 164.927 19.806 164.773 20.091C164.615 20.3907 164.536 20.7254 164.542 21.064C164.542 21.671 164.729 22.158 165.102 22.527C165.475 22.896 165.965 23.08 166.572 23.08V23.08ZM167.09 21.82C166.8 21.82 166.563 21.75 166.376 21.61C166.189 21.47 166.096 21.246 166.096 20.938C166.096 20.77 166.138 20.611 166.222 20.462C166.306 20.312 166.446 20.18 166.642 20.063C166.885 19.9269 167.143 19.8211 167.412 19.748C167.729 19.655 168.122 19.58 168.588 19.524V21.064C168.327 21.307 168.082 21.494 167.853 21.624C167.62 21.7557 167.357 21.8233 167.09 21.82V21.82Z" fill="white"/>
<path fill-rule="evenodd" clip-rule="evenodd" d="M30.6085 30H25.1619L14 7H29.844C36.0049 7.01209 40.9967 12.342 41 18.9171C40.9901 25.0445 36.3425 30 30.6085 30Z" fill="#68C47D"/>
</svg>
